<?xml version="1.0" standalone="no"?>
<!DOCTYPE svg PUBLIC "-//W3C//DTD SVG 20010904//EN"
 "http://www.w3.org/TR/2001/REC-SVG-20010904/DTD/svg10.dtd">
<svg version="1.0" xmlns="http://www.w3.org/2000/svg"
 width="700.000000pt" height="700.000000pt" viewBox="0 0 700.000000 700.000000"
 preserveAspectRatio="xMidYMid meet">
<metadata>
Created by potrace 1.11, written by Peter Selinger 2001-2013
</metadata>
<g transform="translate(0.000000,700.000000) scale(0.100000,-0.100000)"
fill="#000000" stroke="none">
<path d="M3255 6216 c-583 -122 -1229 -674 -1814 -1549 -583 -873 -971 -1854
-1042 -2637 -16 -177 -7 -435 20 -551 74 -326 277 -566 561 -662 125 -42 186
-51 350 -51 269 -1 462 44 1094 253 485 161 624 202 791 236 356 72 518 44
1360 -237 515 -171 707 -222 930 -248 477 -54 850 133 1014 507 66 152 92 298
91 526 0 166 -1 189 -21 357 -69 568 -313 1258 -693 1954 -490 898 -1127 1623
-1701 1934 -322 174 -638 231 -940 168z m411 -617 c229 -60 468 -221 765 -518
352 -353 651 -764 932 -1283 372 -688 592 -1345 626 -1869 19 -310 -22 -455
-146 -516 -54 -26 -66 -28 -183 -28 -197 0 -315 30 -950 240 -485 160 -609
197 -800 235 -397 80 -672 59 -1165 -86 -66 -20 -309 -98 -540 -174 -549 -182
-747 -229 -914 -217 -223 15 -290 136 -278 497 16 462 191 1050 497 1665 319
642 659 1135 1060 1535 222 223 387 349 577 444 84 42 188 80 243 89 72 12
201 6 276 -14z"/>
</g>
</svg>
